<svg id="my-svg" width="100%" xmlns="http://www.w3.org/2000/svg" xmlns:xlink="http://www.w3.org/1999/xlink" class="mindmapDiagram" style="max-width: 1231.64px; background-color: transparent;" viewBox="5 5 1231.644287109375 509.46331787109375" role="graphics-document document" aria-roledescription="mindmap"><style>#my-svg{font-family:"trebuchet ms",verdana,arial,sans-serif;font-size:16px;fill:#333;}@keyframes edge-animation-frame{from{stroke-dashoffset:0;}}@keyframes dash{to{stroke-dashoffset:0;}}#my-svg .edge-animation-slow{stroke-dasharray:9,5!important;stroke-dashoffset:900;animation:dash 50s linear infinite;stroke-linecap:round;}#my-svg .edge-animation-fast{stroke-dasharray:9,5!important;stroke-dashoffset:900;animation:dash 20s linear infinite;stroke-linecap:round;}#my-svg .error-icon{fill:#552222;}#my-svg .error-text{fill:#552222;stroke:#552222;}#my-svg .edge-thickness-normal{stroke-width:1px;}#my-svg .edge-thickness-thick{stroke-width:3.5px;}#my-svg .edge-pattern-solid{stroke-dasharray:0;}#my-svg .edge-thickness-invisible{stroke-width:0;fill:none;}#my-svg .edge-pattern-dashed{stroke-dasharray:3;}#my-svg .edge-pattern-dotted{stroke-dasharray:2;}#my-svg .marker{fill:#333333;stroke:#333333;}#my-svg .marker.cross{stroke:#333333;}#my-svg svg{font-family:"trebuchet ms",verdana,arial,sans-serif;font-size:16px;}#my-svg p{margin:0;}#my-svg .edge{stroke-width:3;}#my-svg .section--1 rect,#my-svg .section--1 path,#my-svg .section--1 circle,#my-svg .section--1 polygon,#my-svg .section--1 path{fill:hsl(240, 100%, 76.2745098039%);}#my-svg .section--1 text{fill:#ffffff;}#my-svg .node-icon--1{font-size:40px;color:#ffffff;}#my-svg .section-edge--1{stroke:hsl(240, 100%, 76.2745098039%);}#my-svg .edge-depth--1{stroke-width:17;}#my-svg .section--1 line{stroke:hsl(60, 100%, 86.2745098039%);stroke-width:3;}#my-svg .disabled,#my-svg .disabled circle,#my-svg .disabled text{fill:lightgray;}#my-svg .disabled text{fill:#efefef;}#my-svg .section-0 rect,#my-svg .section-0 path,#my-svg .section-0 circle,#my-svg .section-0 polygon,#my-svg .section-0 path{fill:hsl(60, 100%, 73.5294117647%);}#my-svg .section-0 text{fill:black;}#my-svg .node-icon-0{font-size:40px;color:black;}#my-svg .section-edge-0{stroke:hsl(60, 100%, 73.5294117647%);}#my-svg .edge-depth-0{stroke-width:14;}#my-svg .section-0 line{stroke:hsl(240, 100%, 83.5294117647%);stroke-width:3;}#my-svg .disabled,#my-svg .disabled circle,#my-svg .disabled text{fill:lightgray;}#my-svg .disabled text{fill:#efefef;}#my-svg .section-1 rect,#my-svg .section-1 path,#my-svg .section-1 circle,#my-svg .section-1 polygon,#my-svg .section-1 path{fill:hsl(80, 100%, 76.2745098039%);}#my-svg .section-1 text{fill:black;}#my-svg .node-icon-1{font-size:40px;color:black;}#my-svg .section-edge-1{stroke:hsl(80, 100%, 76.2745098039%);}#my-svg .edge-depth-1{stroke-width:11;}#my-svg .section-1 line{stroke:hsl(260, 100%, 86.2745098039%);stroke-width:3;}#my-svg .disabled,#my-svg .disabled circle,#my-svg .disabled text{fill:lightgray;}#my-svg .disabled text{fill:#efefef;}#my-svg .section-2 rect,#my-svg .section-2 path,#my-svg .section-2 circle,#my-svg .section-2 polygon,#my-svg .section-2 path{fill:hsl(270, 100%, 76.2745098039%);}#my-svg .section-2 text{fill:#ffffff;}#my-svg .node-icon-2{font-size:40px;color:#ffffff;}#my-svg .section-edge-2{stroke:hsl(270, 100%, 76.2745098039%);}#my-svg .edge-depth-2{stroke-width:8;}#my-svg .section-2 line{stroke:hsl(90, 100%, 86.2745098039%);stroke-width:3;}#my-svg .disabled,#my-svg .disabled circle,#my-svg .disabled text{fill:lightgray;}#my-svg .disabled text{fill:#efefef;}#my-svg .section-3 rect,#my-svg .section-3 path,#my-svg .section-3 circle,#my-svg .section-3 polygon,#my-svg .section-3 path{fill:hsl(300, 100%, 76.2745098039%);}#my-svg .section-3 text{fill:black;}#my-svg .node-icon-3{font-size:40px;color:black;}#my-svg .section-edge-3{stroke:hsl(300, 100%, 76.2745098039%);}#my-svg .edge-depth-3{stroke-width:5;}#my-svg .section-3 line{stroke:hsl(120, 100%, 86.2745098039%);stroke-width:3;}#my-svg .disabled,#my-svg .disabled circle,#my-svg .disabled text{fill:lightgray;}#my-svg .disabled text{fill:#efefef;}#my-svg .section-4 rect,#my-svg .section-4 path,#my-svg .section-4 circle,#my-svg .section-4 polygon,#my-svg .section-4 path{fill:hsl(330, 100%, 76.2745098039%);}#my-svg .section-4 text{fill:black;}#my-svg .node-icon-4{font-size:40px;color:black;}#my-svg .section-edge-4{stroke:hsl(330, 100%, 76.2745098039%);}#my-svg .edge-depth-4{stroke-width:2;}#my-svg .section-4 line{stroke:hsl(150, 100%, 86.2745098039%);stroke-width:3;}#my-svg .disabled,#my-svg .disabled circle,#my-svg .disabled text{fill:lightgray;}#my-svg .disabled text{fill:#efefef;}#my-svg .section-5 rect,#my-svg .section-5 path,#my-svg .section-5 circle,#my-svg .section-5 polygon,#my-svg .section-5 path{fill:hsl(0, 100%, 76.2745098039%);}#my-svg .section-5 text{fill:black;}#my-svg .node-icon-5{font-size:40px;color:black;}#my-svg .section-edge-5{stroke:hsl(0, 100%, 76.2745098039%);}#my-svg .edge-depth-5{stroke-width:-1;}#my-svg .section-5 line{stroke:hsl(180, 100%, 86.2745098039%);stroke-width:3;}#my-svg .disabled,#my-svg .disabled circle,#my-svg .disabled text{fill:lightgray;}#my-svg .disabled text{fill:#efefef;}#my-svg .section-6 rect,#my-svg .section-6 path,#my-svg .section-6 circle,#my-svg .section-6 polygon,#my-svg .section-6 path{fill:hsl(30, 100%, 76.2745098039%);}#my-svg .section-6 text{fill:black;}#my-svg .node-icon-6{font-size:40px;color:black;}#my-svg .section-edge-6{stroke:hsl(30, 100%, 76.2745098039%);}#my-svg .edge-depth-6{stroke-width:-4;}#my-svg .section-6 line{stroke:hsl(210, 100%, 86.2745098039%);stroke-width:3;}#my-svg .disabled,#my-svg .disabled circle,#my-svg .disabled text{fill:lightgray;}#my-svg .disabled text{fill:#efefef;}#my-svg .section-7 rect,#my-svg .section-7 path,#my-svg .section-7 circle,#my-svg .section-7 polygon,#my-svg .section-7 path{fill:hsl(90, 100%, 76.2745098039%);}#my-svg .section-7 text{fill:black;}#my-svg .node-icon-7{font-size:40px;color:black;}#my-svg .section-edge-7{stroke:hsl(90, 100%, 76.2745098039%);}#my-svg .edge-depth-7{stroke-width:-7;}#my-svg .section-7 line{stroke:hsl(270, 100%, 86.2745098039%);stroke-width:3;}#my-svg .disabled,#my-svg .disabled circle,#my-svg .disabled text{fill:lightgray;}#my-svg .disabled text{fill:#efefef;}#my-svg .section-8 rect,#my-svg .section-8 path,#my-svg .section-8 circle,#my-svg .section-8 polygon,#my-svg .section-8 path{fill:hsl(150, 100%, 76.2745098039%);}#my-svg .section-8 text{fill:black;}#my-svg .node-icon-8{font-size:40px;color:black;}#my-svg .section-edge-8{stroke:hsl(150, 100%, 76.2745098039%);}#my-svg .edge-depth-8{stroke-width:-10;}#my-svg .section-8 line{stroke:hsl(330, 100%, 86.2745098039%);stroke-width:3;}#my-svg .disabled,#my-svg .disabled circle,#my-svg .disabled text{fill:lightgray;}#my-svg .disabled text{fill:#efefef;}#my-svg .section-9 rect,#my-svg .section-9 path,#my-svg .section-9 circle,#my-svg .section-9 polygon,#my-svg .section-9 path{fill:hsl(180, 100%, 76.2745098039%);}#my-svg .section-9 text{fill:black;}#my-svg .node-icon-9{font-size:40px;color:black;}#my-svg .section-edge-9{stroke:hsl(180, 100%, 76.2745098039%);}#my-svg .edge-depth-9{stroke-width:-13;}#my-svg .section-9 line{stroke:hsl(0, 100%, 86.2745098039%);stroke-width:3;}#my-svg .disabled,#my-svg .disabled circle,#my-svg .disabled text{fill:lightgray;}#my-svg .disabled text{fill:#efefef;}#my-svg .section-10 rect,#my-svg .section-10 path,#my-svg .section-10 circle,#my-svg .section-10 polygon,#my-svg .section-10 path{fill:hsl(210, 100%, 76.2745098039%);}#my-svg .section-10 text{fill:black;}#my-svg .node-icon-10{font-size:40px;color:black;}#my-svg .section-edge-10{stroke:hsl(210, 100%, 76.2745098039%);}#my-svg .edge-depth-10{stroke-width:-16;}#my-svg .section-10 line{stroke:hsl(30, 100%, 86.2745098039%);stroke-width:3;}#my-svg .disabled,#my-svg .disabled circle,#my-svg .disabled text{fill:lightgray;}#my-svg .disabled text{fill:#efefef;}#my-svg .section-root rect,#my-svg .section-root path,#my-svg .section-root circle,#my-svg .section-root polygon{fill:hsl(240, 100%, 46.2745098039%);}#my-svg .section-root text{fill:#ffffff;}#my-svg .section-root span{color:#ffffff;}#my-svg .section-2 span{color:#ffffff;}#my-svg .icon-container{height:100%;display:flex;justify-content:center;align-items:center;}#my-svg .edge{fill:none;}#my-svg .mindmap-node-label{dy:1em;alignment-baseline:middle;text-anchor:middle;dominant-baseline:middle;text-align:center;}#my-svg :root{--mermaid-font-family:"trebuchet ms",verdana,arial,sans-serif;}</style><g><marker id="my-svg_mindmap-pointEnd" class="marker mindmap" viewBox="0 0 10 10" refX="5" refY="5" markerUnits="userSpaceOnUse" markerWidth="8" markerHeight="8" orient="auto"><path d="M 0 0 L 10 5 L 0 10 z" class="arrowMarkerPath" style="stroke-width: 1; stroke-dasharray: 1, 0;"/></marker><marker id="my-svg_mindmap-pointStart" class="marker mindmap" viewBox="0 0 10 10" refX="4.5" refY="5" markerUnits="userSpaceOnUse" markerWidth="8" markerHeight="8" orient="auto"><path d="M 0 5 L 10 10 L 10 0 z" class="arrowMarkerPath" style="stroke-width: 1; stroke-dasharray: 1, 0;"/></marker><g class="subgraphs"/><g class="edgePaths"><path d="M632.119,275.002L639.194,282.783C646.27,290.564,660.421,306.126,674.571,321.688C688.722,337.25,702.873,352.813,709.948,360.594L717.024,368.375" id="edge_0_1" class="edge-thickness-normal edge-pattern-solid edge section-edge-0 edge-depth-1" style="undefined;;;undefined" data-edge="true" data-et="edge" data-id="edge_0_1" data-points="W3sieCI6NjMyLjExODkzMTk3MDY2OTgsInkiOjI3NS4wMDE3NzE2NzczMjg3NX0seyJ4Ijo2NzQuNTcxMzQwMjI5OTY0NiwieSI6MzIxLjY4ODIwOTgxMTI2NjYzfSx7IngiOjcxNy4wMjM3NDg0ODkyNTkzLCJ5IjozNjguMzc0NjQ3OTQ1MjA0NX1d"/><path d="M741.815,382.459L760.36,386.227C778.906,389.995,815.997,397.531,853.088,405.066C890.18,412.602,927.271,420.138,945.817,423.906L964.362,427.673" id="edge_1_2" class="edge-thickness-normal edge-pattern-solid edge section-edge-0 edge-depth-3" style="undefined;;;undefined" data-edge="true" data-et="edge" data-id="edge_1_2" data-points="W3sieCI6NzQxLjgxNDg1NDIwODQzMDEsInkiOjM4Mi40NTkwNDQzMjY5ODY2Nn0seyJ4Ijo4NTMuMDg4NDk5MTQwNjk1NSwieSI6NDA1LjA2NjI1MTM4NjM0OTg1fSx7IngiOjk2NC4zNjIxNDQwNzI5NjA5LCJ5Ijo0MjcuNjczNDU4NDQ1NzEzMDR9XQ=="/><path d="M721.175,393.246L718.715,398.95C716.255,404.653,711.335,416.061,706.415,427.468C701.495,438.875,696.575,450.282,694.115,455.986L691.655,461.69" id="edge_1_3" class="edge-thickness-normal edge-pattern-solid edge section-edge-0 edge-depth-3" style="undefined;;;undefined" data-edge="true" data-et="edge" data-id="edge_1_3" data-points="W3sieCI6NzIxLjE3NDcyMDEwMDQ0ODIsInkiOjM5My4yNDYxMDgxMTI3MzAxNn0seyJ4Ijo3MDYuNDE1MDgzMDMxNDQ2MywieSI6NDI3LjQ2NzkxNTI2NDg2NzU0fSx7IngiOjY5MS42NTU0NDU5NjI0NDQ0LCJ5Ijo0NjEuNjg5NzIyNDE3MDA0OTN9XQ=="/><path d="M609.234,271.734L599.672,277.587C590.111,283.439,570.988,295.143,551.866,306.847C532.743,318.552,513.62,330.256,504.059,336.108L494.497,341.96" id="edge_0_4" class="edge-thickness-normal edge-pattern-solid edge section-edge-1 edge-depth-1" style="undefined;;;undefined" data-edge="true" data-et="edge" data-id="edge_0_4" data-points="W3sieCI6NjA5LjIzMzY5OTI1Mjk2NTgsInkiOjI3MS43MzQ0Nzc1NTM4Njg3N30seyJ4Ijo1NTEuODY1NTkyMTQ4NzUxMywieSI6MzA2Ljg0NzI4NjI2MzgzMjc2fSx7IngiOjQ5NC40OTc0ODUwNDQ1MzY3NSwieSI6MzQxLjk2MDA5NDk3Mzc5Njc0fV0="/><path d="M473.407,362.287L470.273,367.008C467.139,371.729,460.871,381.17,454.602,390.612C448.334,400.054,442.066,409.495,438.932,414.216L435.798,418.937" id="edge_4_5" class="edge-thickness-normal edge-pattern-solid edge section-edge-1 edge-depth-3" style="undefined;;;undefined" data-edge="true" data-et="edge" data-id="edge_4_5" data-points="W3sieCI6NDczLjQwNzEzNTc4MzIzMzk3LCJ5IjozNjIuMjg3Mzk1OTU1MzgzMn0seyJ4Ijo0NTQuNjAyNDg5MDY5MTA3MjYsInkiOjM5MC42MTE5OTU1OTkwNzM0fSx7IngiOjQzNS43OTc4NDIzNTQ5ODA1NiwieSI6NDE4LjkzNjU5NTI0Mjc2MzZ9XQ=="/><path d="M466.729,350.655L445.525,351.879C424.322,353.102,381.915,355.549,339.508,357.997C297.101,360.444,254.694,362.891,233.491,364.115L212.287,365.338" id="edge_4_6" class="edge-thickness-normal edge-pattern-solid edge section-edge-1 edge-depth-3" style="undefined;;;undefined" data-edge="true" data-et="edge" data-id="edge_4_6" data-points="W3sieCI6NDY2LjcyODU4NTk4Nzk1NDY2LCJ5IjozNTAuNjU0ODk1MTk5MTA1NTd9LHsieCI6MzM5LjUwNzg2NjE3OTI2MiwieSI6MzU3Ljk5NjY5MzAyMjY5NTl9LHsieCI6MjEyLjI4NzE0NjM3MDU2OTM2LCJ5IjozNjUuMzM4NDkwODQ2Mjg2NH1d"/><path d="M607.084,262.601L591.82,261.271C576.557,259.941,546.029,257.28,515.502,254.619C484.975,251.959,454.447,249.298,439.184,247.968L423.92,246.637" id="edge_0_7" class="edge-thickness-normal edge-pattern-solid edge section-edge-2 edge-depth-1" style="undefined;;;undefined" data-edge="true" data-et="edge" data-id="edge_0_7" data-points="W3sieCI6NjA3LjA4NDE2NDgxNDExNTksInkiOjI2Mi42MDE0NDYxOTYyMjc1fSx7IngiOjUxNS41MDIwNzQ0Njg2ODA5LCJ5IjoyNTQuNjE5MzQ3MDY0MDc1Mjd9LHsieCI6NDIzLjkxOTk4NDEyMzI0NiwieSI6MjQ2LjYzNzI0NzkzMTkyMjk5fV0="/><path d="M396.724,236.681L391.15,232.744C385.576,228.807,374.427,220.933,363.278,213.059C352.13,205.186,340.981,197.312,335.407,193.375L329.833,189.438" id="edge_7_8" class="edge-thickness-normal edge-pattern-solid edge section-edge-2 edge-depth-3" style="undefined;;;undefined" data-edge="true" data-et="edge" data-id="edge_7_8" data-points="W3sieCI6Mzk2LjcyNDM3MDAwOTM2OTksInkiOjIzNi42ODEzNzkxOTkxMzQ2Mn0seyJ4IjozNjMuMjc4NDk2NTM0OTg0NCwieSI6MjEzLjA1OTQ3NzQ0NzE0MDkyfSx7IngiOjMyOS44MzI2MjMwNjA1OTg5LCJ5IjoxODkuNDM3NTc1Njk1MTQ3MjJ9XQ=="/><path d="M394.007,244.384L373.598,243.087C353.189,241.791,312.372,239.198,271.555,236.605C230.737,234.012,189.92,231.419,169.511,230.123L149.103,228.826" id="edge_7_9" class="edge-thickness-normal edge-pattern-solid edge section-edge-2 edge-depth-3" style="undefined;;;undefined" data-edge="true" data-et="edge" data-id="edge_7_9" data-points="W3sieCI6Mzk0LjAwNjgxMDA1MzU4NywieSI6MjQ0LjM4Mzg1MzIwODU0MjM4fSx7IngiOjI3MS41NTQ3MjM4ODAxNDQyNSwieSI6MjM2LjYwNTAzMzMxOTAzMzR9LHsieCI6MTQ5LjEwMjYzNzcwNjcwMTUsInkiOjIyOC44MjYyMTM0Mjk1MjQ0Mn1d"/><path d="M614.015,251.223L608.992,243.273C603.969,235.323,593.922,219.423,583.875,203.522C573.829,187.622,563.782,171.722,558.759,163.772L553.735,155.822" id="edge_0_10" class="edge-thickness-normal edge-pattern-solid edge section-edge-3 edge-depth-1" style="undefined;;;undefined" data-edge="true" data-et="edge" data-id="edge_0_10" data-points="W3sieCI6NjE0LjAxNTE0NDcwNjQ1MDMsInkiOjI1MS4yMjMxMDU5MDU5OTQzN30seyJ4Ijo1ODMuODc1MzA3NzE5ODUxMiwieSI6MjAzLjUyMjMxMjIwNzI5NX0seyJ4Ijo1NTMuNzM1NDcwNzMzMjUyLCJ5IjoxNTUuODIxNTE4NTA4NTk1Nn1d"/><path d="M547.537,128.251L548.241,122.471C548.946,116.691,550.354,105.131,551.763,93.57C553.171,82.01,554.579,70.45,555.284,64.67L555.988,58.89" id="edge_10_11" class="edge-thickness-normal edge-pattern-solid edge section-edge-3 edge-depth-3" style="undefined;;;undefined" data-edge="true" data-et="edge" data-id="edge_10_11" data-points="W3sieCI6NTQ3LjUzNzIzNTQ2OTEwMTgsInkiOjEyOC4yNTA4NTQ3MTA2NzUyNH0seyJ4Ijo1NTEuNzYyNTg2NzQyOTc3LCJ5Ijo5My41NzAzNzM5NDUwNTYwMn0seyJ4Ijo1NTUuOTg3OTM4MDE2ODUyLCJ5Ijo1OC44ODk4OTMxNzk0MzY4MX1d"/><path d="M636.936,265.557L652.001,267.227C667.065,268.898,697.194,272.239,727.323,275.58C757.452,278.92,787.581,282.261,802.645,283.932L817.71,285.602" id="edge_0_12" class="edge-thickness-normal edge-pattern-solid edge section-edge-4 edge-depth-1" style="undefined;;;undefined" data-edge="true" data-et="edge" data-id="edge_0_12" data-points="W3sieCI6NjM2LjkzNjEzODczMDcwODYsInkiOjI2NS41NTcwMjQ3MzYyNjA0fSx7IngiOjcyNy4zMjMwMDI5NTE4NTU2LCJ5IjoyNzUuNTc5NjA0NDQ1NTM5MzZ9LHsieCI6ODE3LjcwOTg2NzE3MzAwMjYsInkiOjI4NS42MDIxODQxNTQ4MTgzfV0="/><path d="M847.469,289.366L867.83,292.26C888.19,295.153,928.911,300.94,969.631,306.728C1010.352,312.515,1051.073,318.302,1071.433,321.196L1091.794,324.089" id="edge_12_13" class="edge-thickness-normal edge-pattern-solid edge section-edge-4 edge-depth-3" style="undefined;;;undefined" data-edge="true" data-et="edge" data-id="edge_12_13" data-points="W3sieCI6ODQ3LjQ2OTI2MTgzMDkzNjEsInkiOjI4OS4zNjU5MzQ2ODgyMjU2NX0seyJ4Ijo5NjkuNjMxMzk3NDI3OTM5MywieSI6MzA2LjcyNzcwNzQzNjQyNDM0fSx7IngiOjEwOTEuNzkzNTMzMDI0OTQyNSwieSI6MzI0LjA4OTQ4MDE4NDYyM31d"/><path d="M635.175,256.683L645.138,251.212C655.1,245.741,675.025,234.798,694.951,223.856C714.876,212.913,734.801,201.971,744.763,196.5L754.726,191.028" id="edge_0_14" class="edge-thickness-normal edge-pattern-solid edge section-edge-5 edge-depth-1" style="undefined;;;undefined" data-edge="true" data-et="edge" data-id="edge_0_14" data-points="W3sieCI6NjM1LjE3NTI5NDU0NDQ5NTcsInkiOjI1Ni42ODMzNjAwNDI3OTU4fSx7IngiOjY5NC45NTA1NDgyMzU1NjM3LCJ5IjoyMjMuODU1OTAzNTQ0NjAyNDN9LHsieCI6NzU0LjcyNTgwMTkyNjYzMTcsInkiOjE5MS4wMjg0NDcwNDY0MDkwNH1d"/><path d="M782.872,184.033L803.971,184.349C825.071,184.665,867.27,185.298,909.469,185.931C951.668,186.563,993.867,187.196,1014.967,187.512L1036.066,187.829" id="edge_14_15" class="edge-thickness-normal edge-pattern-solid edge section-edge-5 edge-depth-3" style="undefined;;;undefined" data-edge="true" data-et="edge" data-id="edge_14_15" data-points="W3sieCI6NzgyLjg3MTg5NzI0NDAwMzMsInkiOjE4NC4wMzI3OTQyMTMyNzUxNH0seyJ4Ijo5MDkuNDY5MTEzMTQ3MDMzOCwieSI6MTg1LjkzMDgxNDk1MTQ3MjAzfSx7IngiOjEwMzYuMDY2MzI5MDUwMDY0NSwieSI6MTg3LjgyODgzNTY4OTY2ODkyfV0="/><path d="M779.708,174.591L786.528,169.28C793.349,163.968,806.989,153.345,820.63,142.722C834.27,132.099,847.911,121.475,854.731,116.164L861.551,110.852" id="edge_14_16" class="edge-thickness-normal edge-pattern-solid edge section-edge-5 edge-depth-3" style="undefined;;;undefined" data-edge="true" data-et="edge" data-id="edge_14_16" data-points="W3sieCI6Nzc5LjcwODAzMDE5NDA4NTQsInkiOjE3NC41OTEzMjMwMTQ0NDYzMn0seyJ4Ijo4MjAuNjI5NjM5MjkwMTAwMiwieSI6MTQyLjcyMTc4MTYxNDIzMTkzfSx7IngiOjg2MS41NTEyNDgzODYxMTQ5LCJ5IjoxMTAuODUyMjQwMjE0MDE3NTR9XQ=="/></g><g class="edgeLabels"><g class="edgeLabel"><g class="label" data-id="edge_0_1" transform="translate(0, 0)"><foreignObject width="0" height="0"><div xmlns="http://www.w3.org/1999/xhtml" class="labelBkg" style="display: table-cell; white-space: nowrap; line-height: 1.5; max-width: 200px; text-align: center;"><span class="edgeLabel"></span></div></foreignObject></g></g><g class="edgeLabel"><g class="label" data-id="edge_1_2" transform="translate(0, 0)"><foreignObject width="0" height="0"><div xmlns="http://www.w3.org/1999/xhtml" class="labelBkg" style="display: table-cell; white-space: nowrap; line-height: 1.5; max-width: 200px; text-align: center;"><span class="edgeLabel"></span></div></foreignObject></g></g><g class="edgeLabel"><g class="label" data-id="edge_1_3" transform="translate(0, 0)"><foreignObject width="0" height="0"><div xmlns="http://www.w3.org/1999/xhtml" class="labelBkg" style="display: table-cell; white-space: nowrap; line-height: 1.5; max-width: 200px; text-align: center;"><span class="edgeLabel"></span></div></foreignObject></g></g><g class="edgeLabel"><g class="label" data-id="edge_0_4" transform="translate(0, 0)"><foreignObject width="0" height="0"><div xmlns="http://www.w3.org/1999/xhtml" class="labelBkg" style="display: table-cell; white-space: nowrap; line-height: 1.5; max-width: 200px; text-align: center;"><span class="edgeLabel"></span></div></foreignObject></g></g><g class="edgeLabel"><g class="label" data-id="edge_4_5" transform="translate(0, 0)"><foreignObject width="0" height="0"><div xmlns="http://www.w3.org/1999/xhtml" class="labelBkg" style="display: table-cell; white-space: nowrap; line-height: 1.5; max-width: 200px; text-align: center;"><span class="edgeLabel"></span></div></foreignObject></g></g><g class="edgeLabel"><g class="label" data-id="edge_4_6" transform="translate(0, 0)"><foreignObject width="0" height="0"><div xmlns="http://www.w3.org/1999/xhtml" class="labelBkg" style="display: table-cell; white-space: nowrap; line-height: 1.5; max-width: 200px; text-align: center;"><span class="edgeLabel"></span></div></foreignObject></g></g><g class="edgeLabel"><g class="label" data-id="edge_0_7" transform="translate(0, 0)"><foreignObject width="0" height="0"><div xmlns="http://www.w3.org/1999/xhtml" class="labelBkg" style="display: table-cell; white-space: nowrap; line-height: 1.5; max-width: 200px; text-align: center;"><span class="edgeLabel"></span></div></foreignObject></g></g><g class="edgeLabel"><g class="label" data-id="edge_7_8" transform="translate(0, 0)"><foreignObject width="0" height="0"><div xmlns="http://www.w3.org/1999/xhtml" class="labelBkg" style="display: table-cell; white-space: nowrap; line-height: 1.5; max-width: 200px; text-align: center;"><span class="edgeLabel"></span></div></foreignObject></g></g><g class="edgeLabel"><g class="label" data-id="edge_7_9" transform="translate(0, 0)"><foreignObject width="0" height="0"><div xmlns="http://www.w3.org/1999/xhtml" class="labelBkg" style="display: table-cell; white-space: nowrap; line-height: 1.5; max-width: 200px; text-align: center;"><span class="edgeLabel"></span></div></foreignObject></g></g><g class="edgeLabel"><g class="label" data-id="edge_0_10" transform="translate(0, 0)"><foreignObject width="0" height="0"><div xmlns="http://www.w3.org/1999/xhtml" class="labelBkg" style="display: table-cell; white-space: nowrap; line-height: 1.5; max-width: 200px; text-align: center;"><span class="edgeLabel"></span></div></foreignObject></g></g><g class="edgeLabel"><g class="label" data-id="edge_10_11" transform="translate(0, 0)"><foreignObject width="0" height="0"><div xmlns="http://www.w3.org/1999/xhtml" class="labelBkg" style="display: table-cell; white-space: nowrap; line-height: 1.5; max-width: 200px; text-align: center;"><span class="edgeLabel"></span></div></foreignObject></g></g><g class="edgeLabel"><g class="label" data-id="edge_0_12" transform="translate(0, 0)"><foreignObject width="0" height="0"><div xmlns="http://www.w3.org/1999/xhtml" class="labelBkg" style="display: table-cell; white-space: nowrap; line-height: 1.5; max-width: 200px; text-align: center;"><span class="edgeLabel"></span></div></foreignObject></g></g><g class="edgeLabel"><g class="label" data-id="edge_12_13" transform="translate(0, 0)"><foreignObject width="0" height="0"><div xmlns="http://www.w3.org/1999/xhtml" class="labelBkg" style="display: table-cell; white-space: nowrap; line-height: 1.5; max-width: 200px; text-align: center;"><span class="edgeLabel"></span></div></foreignObject></g></g><g class="edgeLabel"><g class="label" data-id="edge_0_14" transform="translate(0, 0)"><foreignObject width="0" height="0"><div xmlns="http://www.w3.org/1999/xhtml" class="labelBkg" style="display: table-cell; white-space: nowrap; line-height: 1.5; max-width: 200px; text-align: center;"><span class="edgeLabel"></span></div></foreignObject></g></g><g class="edgeLabel"><g class="label" data-id="edge_14_15" transform="translate(0, 0)"><foreignObject width="0" height="0"><div xmlns="http://www.w3.org/1999/xhtml" class="labelBkg" style="display: table-cell; white-space: nowrap; line-height: 1.5; max-width: 200px; text-align: center;"><span class="edgeLabel"></span></div></foreignObject></g></g><g class="edgeLabel"><g class="label" data-id="edge_14_16" transform="translate(0, 0)"><foreignObject width="0" height="0"><div xmlns="http://www.w3.org/1999/xhtml" class="labelBkg" style="display: table-cell; white-space: nowrap; line-height: 1.5; max-width: 200px; text-align: center;"><span class="edgeLabel"></span></div></foreignObject></g></g></g><g class="nodes"><g class="node mindmap-node section-root section--1" id="node_0" transform="translate(622.0275136770734, 263.90387652447794)"><circle class="basic label-container" style="" r="57.0390625" cx="0" cy="0"/><g class="label" style="" transform="translate(-47.0390625, -12)"><rect/><foreignObject width="94.078125" height="24"><div xmlns="http://www.w3.org/1999/xhtml" style="display: table-cell; white-space: nowrap; line-height: 1.5; max-width: 200px; text-align: center;"><span class="nodeLabel"><p>STRATUM INV</p></span></div></foreignObject></g></g><g class="node mindmap-node section-0" id="node_1" transform="translate(727.1151667828557, 379.4725430980553)"><path id="node-1" class="node-bkg node-0" style="" d="M-78.234375 12&#10;    v-24&#10;    q0,-5 5,-5&#10;    h146.46875&#10;    q5,0 5,5&#10;    v24&#10;    q0,5 -5,5&#10;    h-146.46875&#10;    q-5,0 -5,-5&#10;    Z"/><line class="node-line-" x1="-78.234375" y1="17" x2="78.234375" y2="17"/><g class="label" style="" transform="translate(-58.234375, -12)"><rect/><foreignObject width="116.46875" height="24"><div xmlns="http://www.w3.org/1999/xhtml" style="display: table-cell; white-space: nowrap; line-height: 1.5; max-width: 200px; text-align: center;"><span class="nodeLabel"><p>INV-01 Coverage</p></span></div></foreignObject></g></g><g class="node mindmap-node section-0" id="node_2" transform="translate(979.0618314985353, 430.65995967464437)"><path id="node-2" class="node-bkg node-0" style="" d="M-120 24&#10;    v-48&#10;    q0,-5 5,-5&#10;    h230&#10;    q5,0 5,5&#10;    v48&#10;    q0,5 -5,5&#10;    h-230&#10;    q-5,0 -5,-5&#10;    Z"/><line class="node-line-" x1="-120" y1="29" x2="120" y2="29"/><g class="label" style="" transform="translate(-100, -24)"><rect/><foreignObject width="200" height="48"><div xmlns="http://www.w3.org/1999/xhtml" style="display: table; white-space: break-spaces; line-height: 1.5; max-width: 200px; text-align: center; width: 200px;"><span class="nodeLabel"><p>Senior intake blocked below floor</p></span></div></foreignObject></g></g><g class="node mindmap-node section-0" id="node_3" transform="translate(685.714999280037, 475.46328743167976)"><path id="node-3" class="node-bkg node-0" style="" d="M-120 24&#10;    v-48&#10;    q0,-5 5,-5&#10;    h230&#10;    q5,0 5,5&#10;    v48&#10;    q0,5 -5,5&#10;    h-230&#10;    q-5,0 -5,-5&#10;    Z"/><line class="node-line-" x1="-120" y1="29" x2="120" y2="29"/><g class="label" style="" transform="translate(-100, -24)"><rect/><foreignObject width="200" height="48"><div xmlns="http://www.w3.org/1999/xhtml" style="display: table; white-space: break-spaces; line-height: 1.5; max-width: 200px; text-align: center; width: 200px;"><span class="nodeLabel"><p>Junior exit blocked if breaks floor</p></span></div></foreignObject></g></g><g class="node mindmap-node section-1" id="node_4" transform="translate(481.7036706204292, 349.7906960031876)"><path id="node-4" class="node-bkg node-0" style="" d="M-107.328125 12&#10;    v-24&#10;    q0,-5 5,-5&#10;    h204.65625&#10;    q5,0 5,5&#10;    v24&#10;    q0,5 -5,5&#10;    h-204.65625&#10;    q-5,0 -5,-5&#10;    Z"/><line class="node-line-" x1="-107.328125" y1="17" x2="107.328125" y2="17"/><g class="label" style="" transform="translate(-87.328125, -12)"><rect/><foreignObject width="174.65625" height="24"><div xmlns="http://www.w3.org/1999/xhtml" style="display: table-cell; white-space: nowrap; line-height: 1.5; max-width: 200px; text-align: center;"><span class="nodeLabel"><p>INV-02 Senior protection</p></span></div></foreignObject></g></g><g class="node mindmap-node section-1" id="node_5" transform="translate(427.50130751778534, 431.4332951949592)"><path id="node-5" class="node-bkg node-0" style="" d="M-86.1015625 12&#10;    v-24&#10;    q0,-5 5,-5&#10;    h162.203125&#10;    q5,0 5,5&#10;    v24&#10;    q0,5 -5,5&#10;    h-162.203125&#10;    q-5,0 -5,-5&#10;    Z"/><line class="node-line-" x1="-86.1015625" y1="17" x2="86.1015625" y2="17"/><g class="label" style="" transform="translate(-66.1015625, -12)"><rect/><foreignObject width="132.203125" height="24"><div xmlns="http://www.w3.org/1999/xhtml" style="display: table-cell; white-space: nowrap; line-height: 1.5; max-width: 200px; text-align: center;"><span class="nodeLabel"><p>Buffer pays IL first</p></span></div></foreignObject></g></g><g class="node mindmap-node section-1" id="node_6" transform="translate(197.31206173809483, 366.2026900422044)"><path id="node-6" class="node-bkg node-0" style="" d="M-120 24&#10;    v-48&#10;    q0,-5 5,-5&#10;    h230&#10;    q5,0 5,5&#10;    v48&#10;    q0,5 -5,5&#10;    h-230&#10;    q-5,0 -5,-5&#10;    Z"/><line class="node-line-" x1="-120" y1="29" x2="120" y2="29"/><g class="label" style="" transform="translate(-100, -24)"><rect/><foreignObject width="200" height="48"><div xmlns="http://www.w3.org/1999/xhtml" style="display: table; white-space: break-spaces; line-height: 1.5; max-width: 200px; text-align: center; width: 200px;"><span class="nodeLabel"><p>maxSeniorILExposureBps cap</p></span></div></foreignObject></g></g><g class="node mindmap-node section-2" id="node_7" transform="translate(408.9766352602885, 245.3348176036726)"><path id="node-7" class="node-bkg node-0" style="" d="M-100.125 12&#10;    v-24&#10;    q0,-5 5,-5&#10;    h190.25&#10;    q5,0 5,5&#10;    v24&#10;    q0,5 -5,5&#10;    h-190.25&#10;    q-5,0 -5,-5&#10;    Z"/><line class="node-line-" x1="-100.125" y1="17" x2="100.125" y2="17"/><g class="label" style="" transform="translate(-80.125, -12)"><rect/><foreignObject width="160.25" height="24"><div xmlns="http://www.w3.org/1999/xhtml" style="display: table-cell; white-space: nowrap; line-height: 1.5; max-width: 200px; text-align: center;"><span class="nodeLabel"><p>INV-03 Junior first loss</p></span></div></foreignObject></g></g><g class="node mindmap-node section-2" id="node_8" transform="translate(317.5803578096803, 180.78413729060924)"><path id="node-8" class="node-bkg node-0" style="" d="M-106.875 12&#10;    v-24&#10;    q0,-5 5,-5&#10;    h203.75&#10;    q5,0 5,5&#10;    v24&#10;    q0,5 -5,5&#10;    h-203.75&#10;    q-5,0 -5,-5&#10;    Z"/><line class="node-line-" x1="-106.875" y1="17" x2="106.875" y2="17"/><g class="label" style="" transform="translate(-86.875, -12)"><rect/><foreignObject width="173.75" height="24"><div xmlns="http://www.w3.org/1999/xhtml" style="display: table-cell; white-space: nowrap; line-height: 1.5; max-width: 200px; text-align: center;"><span class="nodeLabel"><p>IL reduces junior payout</p></span></div></foreignObject></g></g><g class="node mindmap-node section-2" id="node_9" transform="translate(134.1328125, 227.8752490343942)"><path id="node-9" class="node-bkg node-0" style="" d="M-119.1328125 12&#10;    v-24&#10;    q0,-5 5,-5&#10;    h228.265625&#10;    q5,0 5,5&#10;    v24&#10;    q0,5 -5,5&#10;    h-228.265625&#10;    q-5,0 -5,-5&#10;    Z"/><line class="node-line-" x1="-119.1328125" y1="17" x2="119.1328125" y2="17"/><g class="label" style="" transform="translate(-99.1328125, -12)"><rect/><foreignObject width="198.265625" height="24"><div xmlns="http://www.w3.org/1999/xhtml" style="display: table-cell; white-space: nowrap; line-height: 1.5; max-width: 200px; text-align: center;"><span class="nodeLabel"><p>Reserve not double-debited</p></span></div></foreignObject></g></g><g class="node mindmap-node section-3" id="node_10" transform="translate(545.7231017626289, 143.14074789011204)"><path id="node-10" class="node-bkg node-0" style="" d="M-78.28125 12&#10;    v-24&#10;    q0,-5 5,-5&#10;    h146.5625&#10;    q5,0 5,5&#10;    v24&#10;    q0,5 -5,5&#10;    h-146.5625&#10;    q-5,0 -5,-5&#10;    Z"/><line class="node-line-" x1="-78.28125" y1="17" x2="78.28125" y2="17"/><g class="label" style="" transform="translate(-58.28125, -12)"><rect/><foreignObject width="116.5625" height="24"><div xmlns="http://www.w3.org/1999/xhtml" style="display: table-cell; white-space: nowrap; line-height: 1.5; max-width: 200px; text-align: center;"><span class="nodeLabel"><p>INV-04 Waterfall</p></span></div></foreignObject></g></g><g class="node mindmap-node section-3" id="node_11" transform="translate(557.802071723325, 44)"><path id="node-11" class="node-bkg node-0" style="" d="M-120 24&#10;    v-48&#10;    q0,-5 5,-5&#10;    h230&#10;    q5,0 5,5&#10;    v48&#10;    q0,5 -5,5&#10;    h-230&#10;    q-5,0 -5,-5&#10;    Z"/><line class="node-line-" x1="-120" y1="29" x2="120" y2="29"/><g class="label" style="" transform="translate(-100, -24)"><rect/><foreignObject width="200" height="48"><div xmlns="http://www.w3.org/1999/xhtml" style="display: table; white-space: break-spaces; line-height: 1.5; max-width: 200px; text-align: center; width: 200px;"><span class="nodeLabel"><p>Senior obligation before junior surplus</p></span></div></foreignObject></g></g><g class="node mindmap-node section-4" id="node_12" transform="translate(832.6184922266378, 287.2553323666008)"><path id="node-12" class="node-bkg node-0" style="" d="M-100.5859375 12&#10;    v-24&#10;    q0,-5 5,-5&#10;    h191.171875&#10;    q5,0 5,5&#10;    v24&#10;    q0,5 -5,5&#10;    h-191.171875&#10;    q-5,0 -5,-5&#10;    Z"/><line class="node-line-" x1="-100.5859375" y1="17" x2="100.5859375" y2="17"/><g class="label" style="" transform="translate(-80.5859375, -12)"><rect/><foreignObject width="161.171875" height="24"><div xmlns="http://www.w3.org/1999/xhtml" style="display: table-cell; white-space: nowrap; line-height: 1.5; max-width: 200px; text-align: center;"><span class="nodeLabel"><p>INV-05 Buffer integrity</p></span></div></foreignObject></g></g><g class="node mindmap-node section-4" id="node_13" transform="translate(1106.6443026292409, 326.2000825062479)"><path id="node-13" class="node-bkg node-0" style="" d="M-120 24&#10;    v-48&#10;    q0,-5 5,-5&#10;    h230&#10;    q5,0 5,5&#10;    v48&#10;    q0,5 -5,5&#10;    h-230&#10;    q-5,0 -5,-5&#10;    Z"/><line class="node-line-" x1="-120" y1="29" x2="120" y2="29"/><g class="label" style="" transform="translate(-100, -24)"><rect/><foreignObject width="200" height="48"><div xmlns="http://www.w3.org/1999/xhtml" style="display: table; white-space: break-spaces; line-height: 1.5; max-width: 200px; text-align: center; width: 200px;"><span class="nodeLabel"><p>Only epoch IL and shortfall draw reserve</p></span></div></foreignObject></g></g><g class="node mindmap-node section-5" id="node_14" transform="translate(767.873582794054, 183.80793056472692)"><path id="node-14" class="node-bkg node-0" style="" d="M-106.6328125 12&#10;    v-24&#10;    q0,-5 5,-5&#10;    h203.265625&#10;    q5,0 5,5&#10;    v24&#10;    q0,5 -5,5&#10;    h-203.265625&#10;    q-5,0 -5,-5&#10;    Z"/><line class="node-line-" x1="-106.6328125" y1="17" x2="106.6328125" y2="17"/><g class="label" style="" transform="translate(-86.6328125, -12)"><rect/><foreignObject width="173.265625" height="24"><div xmlns="http://www.w3.org/1999/xhtml" style="display: table-cell; white-space: nowrap; line-height: 1.5; max-width: 200px; text-align: center;"><span class="nodeLabel"><p>INV-06 Epoch monotonic</p></span></div></foreignObject></g></g><g class="node mindmap-node section-5" id="node_15" transform="translate(1051.064643500014, 188.05369933821714)"><path id="node-15" class="node-bkg node-0" style="" d="M-120 24&#10;    v-48&#10;    q0,-5 5,-5&#10;    h230&#10;    q5,0 5,5&#10;    v48&#10;    q0,5 -5,5&#10;    h-230&#10;    q-5,0 -5,-5&#10;    Z"/><line class="node-line-" x1="-120" y1="29" x2="120" y2="29"/><g class="label" style="" transform="translate(-100, -24)"><rect/><foreignObject width="200" height="48"><div xmlns="http://www.w3.org/1999/xhtml" style="display: table; white-space: break-spaces; line-height: 1.5; max-width: 200px; text-align: center; width: 200px;"><span class="nodeLabel"><p>currentEpoch only increases</p></span></div></foreignObject></g></g><g class="node mindmap-node section-5" id="node_16" transform="translate(873.3856957861464, 101.63563266373694)"><path id="node-16" class="node-bkg node-0" style="" d="M-120 24&#10;    v-48&#10;    q0,-5 5,-5&#10;    h230&#10;    q5,0 5,5&#10;    v48&#10;    q0,5 -5,5&#10;    h-230&#10;    q-5,0 -5,-5&#10;    Z"/><line class="node-line-" x1="-120" y1="29" x2="120" y2="29"/><g class="label" style="" transform="translate(-100, -24)"><rect/><foreignObject width="200" height="48"><div xmlns="http://www.w3.org/1999/xhtml" style="display: table; white-space: break-spaces; line-height: 1.5; max-width: 200px; text-align: center; width: 200px;"><span class="nodeLabel"><p>EpochNotElapsed on early close</p></span></div></foreignObject></g></g></g></g></svg>